<?xml version="1.0" encoding="UTF-8" standalone="no"?>
<svg
   version="1.1"
   id="Layer_1"
   x="0px"
   y="0px"
   viewBox="0 0 512 512"
   style="enable-background:new 0 0 512 512;"
   xml:space="preserve"
   sodipodi:docname="icon.svg"
   inkscape:version="1.1 (c68e22c387, 2021-05-23)"
   inkscape:export-filename="/home/pedro/Projects/midiplayer-icons/kmetronome_64.png"
   inkscape:export-xdpi="12"
   inkscape:export-ydpi="12"
   xmlns:inkscape="http://www.inkscape.org/namespaces/inkscape"
   xmlns:sodipodi="http://sodipodi.sourceforge.net/DTD/sodipodi-0.dtd"
   xmlns="http://www.w3.org/2000/svg"
   xmlns:svg="http://www.w3.org/2000/svg"
   xmlns:rdf="http://www.w3.org/1999/02/22-rdf-syntax-ns#"
   xmlns:cc="http://creativecommons.org/ns#"
   xmlns:dc="http://purl.org/dc/elements/1.1/"><metadata
     id="metadata53"><rdf:RDF><cc:Work
         rdf:about=""><dc:format>image/svg+xml</dc:format><dc:type
           rdf:resource="http://purl.org/dc/dcmitype/StillImage" /><cc:license
           rdf:resource="http://creativecommons.org/licenses/by-sa/4.0/" /></cc:Work><cc:License
         rdf:about="http://creativecommons.org/licenses/by-sa/4.0/"><cc:permits
           rdf:resource="http://creativecommons.org/ns#Reproduction" /><cc:permits
           rdf:resource="http://creativecommons.org/ns#Distribution" /><cc:requires
           rdf:resource="http://creativecommons.org/ns#Notice" /><cc:requires
           rdf:resource="http://creativecommons.org/ns#Attribution" /><cc:permits
           rdf:resource="http://creativecommons.org/ns#DerivativeWorks" /><cc:requires
           rdf:resource="http://creativecommons.org/ns#ShareAlike" /></cc:License></rdf:RDF></metadata><defs
     id="defs51" /><sodipodi:namedview
     pagecolor="#ffffff"
     bordercolor="#666666"
     borderopacity="1"
     objecttolerance="10"
     gridtolerance="10"
     guidetolerance="10"
     inkscape:pageopacity="0"
     inkscape:pageshadow="2"
     inkscape:window-width="1856"
     inkscape:window-height="1051"
     id="namedview49"
     showgrid="false"
     inkscape:zoom="1"
     inkscape:cx="248.5"
     inkscape:cy="198"
     inkscape:window-x="64"
     inkscape:window-y="128"
     inkscape:window-maximized="1"
     inkscape:current-layer="Layer_1"
     inkscape:document-rotation="0"
     inkscape:snap-global="true"
     inkscape:pagecheckerboard="true"
     borderlayer="true"
     showborder="true"><inkscape:grid
       type="xygrid"
       id="grid1644" /></sodipodi:namedview><g
     id="g69"
     transform="matrix(1.331,0,0,1.331,-84.218647,-84.736)"
     style="display:inline"><g
       id="layer1"
       transform="matrix(0.5589485,0,0,0.56370027,64.544988,64.576958)"><g
         transform="matrix(0.9998952,0,0,0.9951194,-32.960748,-12.760746)"
         id="g7082"><rect
           width="683.07159"
           height="686.34979"
           x="32.964203"
           y="13.187297"
           style="opacity:0.99;fill:none;fill-opacity:0;fill-rule:evenodd;stroke:none;stroke-width:0.975511;stroke-linecap:round;stroke-linejoin:miter;stroke-miterlimit:1;stroke-dasharray:none;stroke-opacity:1"
           id="rect4151" /><g
           transform="translate(-9.7142829,-27.780714)"
           style="fill:none;stroke:#000000;stroke-width:0.025in"
           id="g2180"><circle
             cx="385"
             cy="177"
             r="30"
             style="fill:#000000;stroke:#000000;stroke-width:7"
             id="circle2182" /><circle
             cx="593"
             cy="386"
             r="30"
             style="fill:#000000;stroke:#000000;stroke-width:7"
             id="circle2184" /><circle
             cx="533"
             cy="237"
             r="30"
             style="fill:#000000;stroke:#000000;stroke-width:7"
             id="circle2186" /><circle
             cx="384"
             cy="383"
             r="296"
             style="stroke:#000000;stroke-width:30"
             id="circle2188" /><circle
             cx="178"
             cy="383"
             r="30"
             style="fill:#000000;stroke:#000000;stroke-width:7"
             id="circle2190" /><circle
             cx="240"
             cy="238"
             r="30"
             style="fill:#000000;stroke:#000000;stroke-width:7"
             id="circle2192" /><rect
             width="92"
             height="61"
             rx="30"
             x="340"
             y="609"
             style="fill:#000000;stroke:#000000;stroke-width:7;stroke-linecap:butt;stroke-linejoin:miter"
             id="rect2194" /></g></g></g></g><g
     id="g911"
     transform="matrix(0.21632195,0,0,0.26218001,148.69442,146.07742)"><path
       d="m 290,500 c 30.48786,12.7664 30.87246,70.69077 49.05036,101.92337 C 369.36691,684.61558 399.68345,767.30779 430,850 c 37.46694,-0.005 91.81906,11.78163 55.39257,-39.82966 C 444.89505,699.7469 404.39752,589.32345 363.9,478.9 465.39962,423.0951 442.98052,254.89071 331.62434,226.29583 224.05331,186.61979 111.00206,311.3086 161.00469,414.48594 181.97833,465.4482 234.80959,500.69281 290,500 Z"
       id="path907" /><path
       d="m 537,35.1 c -44.11546,-66.233191 -89.05276,16.900637 -98.82384,61.871866 -18.71721,49.304654 -59.35102,100.419274 13.0379,128.545324 25.9433,52.33205 30.45136,-104.96492 63.61187,-38.29434 C 603.21729,418.5819 691.60864,649.94095 780,881.3 c -186.66667,0 -373.33333,0 -560,0 C 245.76667,813.86667 271.53333,746.43333 297.3,679 283.66667,641.76667 270.03333,604.53333 256.4,567.3 232.86333,586.60624 226.31092,636.30833 209.38624,667.44771 166.25749,774.96514 123.12875,882.48257 80,990 c 280,0 560,0 840,0 C 792.33333,671.7 664.66667,353.4 537,35.1 Z"
       id="path909" /></g></svg>
