/* XPM */
static const char * f1_xpm[] = {
"8 5 31 1",
" 	c None",
".	c #FFFFFF",
"+	c #D2D2D2",
"@	c #8C8C8C",
"#	c #6A6A6A",
"$	c #5C5C5C",
"%	c #909090",
"&	c #E4E4E4",
"*	c #858585",
"=	c #020202",
"-	c #7C7C7C",
";	c #FCFCFC",
">	c #B5B5B5",
",	c #0A0A0A",
"'	c #A7A7A7",
")	c #1D1D1D",
"!	c #000000",
"~	c #A1A1A1",
"{	c #747474",
"]	c #393939",
"^	c #626262",
"/	c #2E2E2E",
"(	c #E9E9E9",
"_	c #010101",
":	c #FEFEFE",
"<	c #ACACAC",
"[	c #636363",
"}	c #373737",
"|	c #6F6F6F",
"1	c #676767",
"2	c #C4C4C4",
".+@#$%&.",
"*=-;>,,'",
")!~..{!]",
"^!/(.{_@",
":<[}|12."};
