/* XPM */
static const char * f16_xpm[] = {
"10 17 55 1",
" 	c None",
".	c #FFFFFF",
"+	c #FEFEFE",
"@	c #DDDDDD",
"#	c #F6F6F6",
"$	c #747474",
"%	c #292929",
"&	c #FBFBFB",
"*	c #000000",
"=	c #959595",
"-	c #2F2F2F",
";	c #141414",
">	c #C7C7C7",
",	c #474747",
"'	c #323232",
")	c #EEEEEE",
"!	c #010101",
"~	c #BCBCBC",
"{	c #6A6A6A",
"]	c #0F0F0F",
"^	c #191919",
"/	c #E7E7E7",
"(	c #676767",
"_	c #F3F3F3",
":	c #7A7A7A",
"<	c #858585",
"[	c #353535",
"}	c #888888",
"|	c #949494",
"1	c #9A9A9A",
"2	c #212121",
"3	c #565656",
"4	c #EBEBEB",
"5	c #989898",
"6	c #B7B7B7",
"7	c #F9F9F9",
"8	c #9C9C9C",
"9	c #5C5C5C",
"0	c #848484",
"a	c #919191",
"b	c #909090",
"c	c #C6C6C6",
"d	c #EDEDED",
"e	c #8D8D8D",
"f	c #5B5B5B",
"g	c #F1F1F1",
"h	c #C4C4C4",
"i	c #F8F8F8",
"j	c #7C7C7C",
"k	c #373737",
"l	c #5E5E5E",
"m	c #B5B5B5",
"n	c #3C3C3C",
"o	c #4B4B4B",
"p	c #A4A4A4",
"....+@....",
"....#$....",
"....#%&...",
"....#*=...",
"....#-;>..",
"....#,>').",
"....#!~>{.",
"....#]^/(_",
"....#:<[}@",
".....|.12+",
".....|..34",
".....|..56",
".7890a..bc",
"d'***e..fg",
"9***!h.ij.",
"k***l.....",
"mnop......"};
