/* XPM */
static const char * f2_xpm[] = {
"6 17 30 1",
" 	c None",
".	c #FFFFFF",
"+	c #F0F0F0",
"@	c #949494",
"#	c #FCFCFC",
"$	c #BABABA",
"%	c #6C6C6C",
"&	c #626262",
"*	c #585858",
"=	c #4C4C4C",
"-	c #040404",
";	c #7F7F7F",
">	c #F3F3F3",
",	c #505050",
"'	c #A9A9A9",
")	c #242424",
"!	c #CECECE",
"~	c #FAFAFA",
"{	c #7B7B7B",
"]	c #4F4F4F",
"^	c #E0E0E0",
"/	c #D4D4D4",
"(	c #343434",
"_	c #090909",
":	c #C8C8C8",
"<	c #D3D3D3",
"[	c #5F5F5F",
"}	c #3D3D3D",
"|	c #707070",
"1	c #DFDFDF",
".....+",
".....@",
".....@",
".....@",
".....@",
".....@",
".....@",
".....@",
".....@",
".....@",
".....@",
".....@",
".#$%&*",
"#=-;>,",
"')!~{]",
";^/(_:",
"<[}|1."};
