/* XPM */
static const char * f32_xpm[] = {
"10 21 64 1",
" 	c None",
".	c #FFFFFF",
"+	c #E7E7E7",
"@	c #707070",
"#	c #686868",
"$	c #C2C2C2",
"%	c #393939",
"&	c #FCFCFC",
"*	c #6B6B6B",
"=	c #242424",
"-	c #818181",
";	c #6A6A6A",
">	c #C8C8C8",
",	c #3D3D3D",
"'	c #BDBDBD",
")	c #5B5B5B",
"!	c #EEEEEE",
"~	c #464646",
"{	c #040404",
"]	c #949494",
"^	c #9D9D9D",
"/	c #BFBFBF",
"(	c #6D6D6D",
"_	c #B8B8B8",
":	c #292929",
"<	c #7D7D7D",
"[	c #AEAEAE",
"}	c #8E8E8E",
"|	c #D4D4D4",
"1	c #0C0C0C",
"2	c #D0D0D0",
"3	c #B9B9B9",
"4	c #979797",
"5	c #8C8C8C",
"6	c #636363",
"7	c #1A1A1A",
"8	c #D9D9D9",
"9	c #6F6F6F",
"0	c #ADADAD",
"a	c #212121",
"b	c #A9A9A9",
"c	c #919191",
"d	c #F9F9F9",
"e	c #535353",
"f	c #FDFDFD",
"g	c #5E5E5E",
"h	c #CACACA",
"i	c #727272",
"j	c #626262",
"k	c #C0C0C0",
"l	c #959595",
"m	c #8D8D8D",
"n	c #000000",
"o	c #2C2C2C",
"p	c #868686",
"q	c #EBEBEB",
"r	c #CCCCCC",
"s	c #010101",
"t	c #545454",
"u	c #A8A8A8",
"v	c #131313",
"w	c #EFEFEF",
"x	c #323232",
"y	c #797979",
".....+....",
".....@....",
".....#$...",
".....#%&..",
".....*=-..",
".....;>,'.",
".....#)!~&",
".....#{]^/",
".....(_:<[",
".....#}+:|",
".....#1234",
".....56789",
".....].0ab",
".....]..]c",
".....]..de",
".....]..fg",
"..hij(..kl",
".m{nno..pq",
"rsnnnt....",
"unnnv8....",
"wgxy+....."};
