/* XPM */
static const char * f4_xpm[] = {
"6 17 22 1",
" 	c None",
".	c #FFFFFF",
"+	c #F0F0F0",
"@	c #949494",
"#	c #D5D5D5",
"$	c #7A7A7A",
"%	c #5D5D5D",
"&	c #A5A5A5",
"*	c #090909",
"=	c #000000",
"-	c #0E0E0E",
";	c #E4E4E4",
">	c #070707",
",	c #363636",
"'	c #C6C6C6",
")	c #0A0A0A",
"!	c #C4C4C4",
"~	c #F9F9F9",
"{	c #6C6C6C",
"]	c #2E2E2E",
"^	c #707070",
"/	c #DBDBDB",
".....+",
".....@",
".....@",
".....@",
".....@",
".....@",
".....@",
".....@",
".....@",
".....@",
".....@",
".....@",
"..#$%%",
".&*==-",
";>===,",
"'===)!",
"~{]^/."};
