/* XPM */
static const char * f64_xpm[] = {
"10 23 79 1",
" 	c None",
".	c #FFFFFF",
"+	c #EDEDED",
"@	c #707070",
"#	c #373737",
"$	c #FBFBFB",
"%	c #191919",
"&	c #979797",
"*	c #313131",
"=	c #101010",
"-	c #D7D7D7",
";	c #595959",
">	c #B5B5B5",
",	c #393939",
"'	c #F8F8F8",
")	c #1C1C1C",
"!	c #CBCBCB",
"~	c #A0A0A0",
"{	c #8D8D8D",
"]	c #252525",
"^	c #FEFEFE",
"/	c #626262",
"(	c #636363",
"_	c #464646",
":	c #717171",
"<	c #FCFCFC",
"[	c #4C4C4C",
"}	c #F1F1F1",
"|	c #848484",
"1	c #282828",
"2	c #FDFDFD",
"3	c #3D3D3D",
"4	c #787878",
"5	c #F0F0F0",
"6	c #575757",
"7	c #0A0A0A",
"8	c #ACACAC",
"9	c #AFAFAF",
"0	c #BCBCBC",
"a	c #CDCDCD",
"b	c #2D2D2D",
"c	c #5A5A5A",
"d	c #DBDBDB",
"e	c #404040",
"f	c #DEDEDE",
"g	c #2E2E2E",
"h	c #181818",
"i	c #E6E6E6",
"j	c #D3D3D3",
"k	c #878787",
"l	c #727272",
"m	c #2F2F2F",
"n	c #949494",
"o	c #C2C2C2",
"p	c #A2A2A2",
"q	c #292929",
"r	c #6F6F6F",
"s	c #C9C9C9",
"t	c #AAAAAA",
"u	c #616161",
"v	c #777777",
"w	c #BBBBBB",
"x	c #939393",
"y	c #F9F9F9",
"z	c #484848",
"A	c #000000",
"B	c #6A6A6A",
"C	c #B2B2B2",
"D	c #A9A9A9",
"E	c #7F7F7F",
"F	c #A3A3A3",
"G	c #606060",
"H	c #E7E7E7",
"I	c #3F3F3F",
"J	c #919191",
"K	c #C8C8C8",
"L	c #454545",
"M	c #424242",
"N	c #959595",
".....+....",
".....@....",
".....#$...",
".....%&...",
".....*=-..",
".....;>,'.",
".....)!~{.",
".....%]+;^",
"...../(_:<",
".....[}|12",
".....342;5",
".....67890",
".....4abcd",
".....e0fg^",
".....3hi|j",
".....klmno",
".....n.pq^",
".....n..rs",
".<tuvk..wx",
"yzAAAB..CD",
"EAAAAF..GH",
"cAAAI$..J.",
"KLMN$....."};
