/* XPM */
static const char * f8_xpm[] = {
"10 17 48 1",
" 	c None",
".	c #FFFFFF",
"+	c #DCDCDC",
"@	c #707070",
"#	c #2D2D2D",
"$	c #FCFCFC",
"%	c #0D0D0D",
"&	c #A4A4A4",
"*	c #141414",
"=	c #E9E9E9",
"-	c #595959",
";	c #393939",
">	c #4A4A4A",
",	c #F7F7F7",
"'	c #444444",
")	c #929292",
"!	c #ECECEC",
"~	c #333333",
"{	c #F8F8F8",
"]	c #717171",
"^	c #909090",
"/	c #B7B7B7",
"(	c #949494",
"_	c #AEAEAE",
":	c #9E9E9E",
"<	c #9D9D9D",
"[	c #BEBEBE",
"}	c #636363",
"|	c #F3F3F3",
"1	c #FBFBFB",
"2	c #A5A5A5",
"3	c #5F5F5F",
"4	c #7B7B7B",
"5	c #8F8F8F",
"6	c #FEFEFE",
"7	c #747474",
"8	c #F6F6F6",
"9	c #3F3F3F",
"0	c #000000",
"a	c #878787",
"b	c #727272",
"c	c #AFAFAF",
"d	c #4D4D4D",
"e	c #FDFDFD",
"f	c #C1C1C1",
"g	c #424242",
"h	c #454545",
"i	c #9A9A9A",
".....+....",
".....@....",
".....#$...",
".....%&...",
".....%*=..",
".....-;>$.",
".....@,').",
".....@.!~{",
".....]..^/",
".....(.._:",
".....(..<[",
".....(..}|",
".12345.67.",
"89000a....",
"b0000c....",
"d000>e....",
"fghie....."};
