<?xml version="1.0" encoding="UTF-8"?>
<svg xmlns="http://www.w3.org/2000/svg" height="330" width="772.44" version="1.1" baseProfile="tiny">
<g id="d0">
<path fill="%0" d="m-253.62,782.36c-3.092,0-5.9663,2.4836-6.4281,5.5625l-0.0422,0.28125,22.377,14.156h52.812l22.389-19.469c-0.67134-0.33711-1.444-0.53125-2.2953-0.53125h-88.812z"/>
<path fill="%0" d="m-160.01,786.86-22.856,19.875-6.3,42,8.5531,10.062,11.428-9.9375,9.1406-60.938c0.0546-0.36406,0.0495-0.71821,0.0344-1.0625z"/>
<path fill="%0" d="m-181.67,865.86-11.572,10.062-6.4313,42.875,16.756,19.75c0.26581-0.5508,0.45182-1.1371,0.54375-1.75l9.15-61-8.4469-9.9375z"/>
<path fill="%1" d="m-184.67,862.33-8.4734-9.9688-52.625,0-11.752,10.219,8.3141,9.7812,53,0,11.536-10.031z"/>
<path fill="%0" d="m-261.59,866.11-11.716,10.188-8.1891,54.594,21.73-11.531,6.5156-43.438-8.3406-9.8125z"/>
<path fill="%0" d="m-260.53,859.05,11.284-9.8125,6.5531-43.688-18.266-11.562-8.2312,54.875,8.6594,10.188z"/>
<path fill="%0" d="m-255.43,922.36-26.928,14.312-0.0187,0.125c-0.46183,3.0789,1.6674,5.5625,4.7594,5.5625h88.812c0.62376,0,1.2355-0.095,1.8234-0.2813l-16.761-19.719h-51.688z"/>
</g>
<g id="d1">
<path fill="%1" d="m-123.62,782.36c-3.092,0-5.9663,2.4836-6.4281,5.5625l-0.0422,0.28125,22.377,14.156h52.812l22.389-19.469c-0.67134-0.33711-1.444-0.53125-2.2953-0.53125h-88.812z"/>
<path fill="%0" d="m-30.01,786.86-22.856,19.875-6.3,42,8.5531,10.062,11.428-9.9375,9.1406-60.938c0.05461-0.36406,0.04953-0.71821,0.03437-1.0625z"/>
<path fill="%0" d="m-51.673,865.86-11.572,10.062-6.4313,42.875,16.756,19.75c0.26581-0.5508,0.45182-1.1371,0.54375-1.75l9.15-61-8.4469-9.9375z"/>
<path fill="%1" d="m-54.674,862.33-8.4734-9.9688-52.625,0-11.752,10.219,8.3141,9.7812,53,0,11.536-10.031z"/>
<path fill="%1" d="m-131.59,866.11-11.716,10.188-8.189,54.594,21.73-11.531,6.5156-43.438-8.3406-9.8125z"/>
<path fill="%1" d="m-130.53,859.05,11.284-9.8125,6.5531-43.688-18.266-11.562-8.2312,54.875,8.6594,10.188z"/>
<path fill="%1" d="m-125.43,922.36-26.928,14.312-0.0187,0.125c-0.46183,3.0789,1.6674,5.5625,4.7594,5.5625h88.812c0.62376,0,1.2355-0.095,1.8234-0.2813l-16.761-19.719h-51.687z"/>
</g>
<g id="d2">
<path fill="%0" d="m6.3836,782.36c-3.092,0-5.9663,2.4836-6.4281,5.5625l-0.04219,0.28125,22.377,14.156h52.812l22.389-19.469c-0.67134-0.33711-1.444-0.53125-2.2953-0.53125h-88.812z"/>
<path fill="%0" d="m99.99,786.86-22.856,19.875-6.3,42,8.5531,10.062,11.428-9.9375,9.1406-60.938c0.0546-0.36406,0.0495-0.71821,0.0344-1.0625z"/>
<path fill="%1" d="m78.327,865.86-11.572,10.062-6.4313,42.875,16.756,19.75c0.26581-0.5508,0.45182-1.1371,0.54375-1.75l9.15-61-8.4469-9.9375z"/>
<path fill="%0" d="m75.326,862.33-8.4734-9.9688-52.625,0-11.752,10.219,8.3141,9.7812,53,0,11.536-10.031z"/>
<path fill="%0" d="m-1.5852,866.11-11.716,10.188-8.1891,54.594,21.73-11.531,6.5156-43.438-8.3406-9.8125z"/>
<path fill="%1" d="m-0.52581,859.05,11.284-9.8125,6.5531-43.688-18.266-11.562-8.2312,54.875,8.6594,10.188z"/>
<path fill="%0" d="m4.5711,922.36-26.928,14.312-0.01875,0.125c-0.46184,3.0789,1.6674,5.5625,4.7594,5.5625h88.812c0.62375,0,1.2355-0.095,1.8234-0.2813l-16.761-19.719h-51.688z"/>
</g>
<g id="d3">
<path fill="%0" d="m136.38,782.36c-3.092,0-5.9663,2.4836-6.4281,5.5625l-0.0422,0.28125,22.377,14.156h52.812l22.389-19.469c-0.67134-0.33711-1.444-0.53125-2.2953-0.53125h-88.812z"/>
<path fill="%0" d="m229.99,786.86-22.856,19.875-6.3,42,8.5531,10.062,11.428-9.9375,9.1406-60.938c0.0546-0.36406,0.0495-0.71821,0.0344-1.0625z"/>
<path fill="%0" d="m208.33,865.86-11.572,10.062-6.4313,42.875,16.756,19.75c0.26581-0.5508,0.45182-1.1371,0.54375-1.75l9.15-61-8.4469-9.9375z"/>
<path fill="%0" d="m205.33,862.33-8.4734-9.9688-52.625,0-11.752,10.219,8.3141,9.7812,53,0,11.536-10.031z"/>
<path fill="%1" d="m128.41,866.11-11.716,10.188-8.1891,54.594,21.73-11.531,6.5156-43.438-8.3406-9.8125z"/>
<path fill="%1" d="m129.47,859.05,11.284-9.8125,6.5531-43.688-18.266-11.562-8.2312,54.875,8.6594,10.188z"/>
<path fill="%0" d="m134.57,922.36-26.928,14.312-0.0187,0.125c-0.46183,3.0789,1.6674,5.5625,4.7594,5.5625h88.812c0.62376,0,1.2355-0.095,1.8234-0.2813l-16.761-19.719h-51.688z"/>
</g>
<g id="d4">
<path fill="%1" d="m266.38,782.36c-3.092,0-5.9663,2.4836-6.4281,5.5625l-0.0422,0.2812,22.377,14.156h52.812l22.389-19.469c-0.67135-0.3371-1.444-0.5312-2.2953-0.5312h-88.812z"/>
<path fill="%0" d="m359.99,786.86-22.856,19.875-6.3,42,8.5531,10.062,11.428-9.9375,9.1406-60.938c0.0546-0.3641,0.0495-0.7182,0.0344-1.0625z"/>
<path fill="%0" d="m338.33,865.86-11.572,10.062-6.4312,42.875,16.756,19.75c0.26581-0.5508,0.45182-1.1371,0.54375-1.75l9.15-61-8.4469-9.9375z"/>
<path fill="%0" d="m335.33,862.33-8.4734-9.9687-52.625,0-11.752,10.219,8.3141,9.7813,53,0,11.536-10.031z"/>
<path fill="%1" d="m258.41,866.11-11.716,10.188-8.189,54.594,21.73-11.531,6.5156-43.438-8.3406-9.8125z"/>
<path fill="%0" d="m259.47,859.05,11.284-9.8125,6.5531-43.688-18.266-11.562-8.2312,54.875,8.6594,10.188z"/>
<path fill="%1" d="m264.57,922.36-26.928,14.312-0.0188,0.125c-0.46183,3.0789,1.6674,5.5625,4.7594,5.5625h88.812c0.62376,0,1.2355-0.095,1.8234-0.2813l-16.761-19.719h-51.688z"/>
</g>
<g id="d5">
<path fill="%0" d="m396.38,782.36c-3.092,0-5.9663,2.4836-6.4281,5.5625l-0.0422,0.28125,22.377,14.156h52.812l22.389-19.469c-0.67134-0.33711-1.444-0.53125-2.2953-0.53125h-88.812z"/>
<path fill="%1" d="m489.99,786.86-22.856,19.875-6.3,42,8.5531,10.062,11.428-9.9375,9.1406-60.938c0.0546-0.36406,0.0495-0.71821,0.0344-1.0625z"/>
<path fill="%0" d="m468.33,865.86-11.572,10.062-6.4313,42.875,16.756,19.75c0.26581-0.5508,0.45182-1.1371,0.54375-1.75l9.15-61-8.4469-9.9375z"/>
<path fill="%0" d="m465.33,862.33-8.4734-9.9688-52.625,0-11.752,10.219,8.3141,9.7812,53,0,11.536-10.031z"/>
<path fill="%1" d="m388.41,866.11-11.716,10.188-8.1891,54.594,21.73-11.531,6.5156-43.438-8.3406-9.8125z"/>
<path fill="%0" d="m389.47,859.05,11.284-9.8125,6.5531-43.688-18.266-11.562-8.2312,54.875,8.6594,10.188z"/>
<path fill="%0" d="m394.57,922.36-26.928,14.312-0.0188,0.125c-0.46183,3.0789,1.6674,5.5625,4.7594,5.5625h88.812c0.62376,0,1.2355-0.095,1.8234-0.2813l-16.761-19.719h-51.688z"/>
</g>
<g id="d6">
<path fill="%0" d="m-253.62,952.36c-3.092,0-5.9663,2.4836-6.4281,5.5625l-0.0422,0.2812,22.377,14.156h52.812l22.389-19.469c-0.67135-0.3371-1.444-0.5312-2.2953-0.5312h-88.812z"/>
<path fill="%1" d="m-160.01,956.86-22.856,19.875-6.3,42,8.5531,10.062,11.428-9.9375,9.1406-60.938c0.0546-0.3641,0.0495-0.7182,0.0344-1.0625z"/>
<path fill="%0" d="m-181.67,1035.9-11.572,10.062-6.4312,42.875,16.756,19.75c0.26581-0.5508,0.45182-1.1371,0.54375-1.75l9.15-61-8.4469-9.9375z"/>
<path fill="%0" d="m-184.67,1032.3-8.4734-9.9687-52.625,0-11.752,10.219,8.3141,9.7813,53,0,11.536-10.031z"/>
<path fill="%0" d="m-261.59,1036.1-11.716,10.188-8.189,54.594,21.73-11.531,6.5156-43.438-8.3406-9.8125z"/>
<path fill="%0" d="m-260.53,1029,11.284-9.8125,6.5531-43.688-18.266-11.562-8.2312,54.875,8.6594,10.188z"/>
<path fill="%0" d="m-255.43,1092.4-26.928,14.312-0.0187,0.125c-0.46183,3.0789,1.6674,5.5625,4.7594,5.5625h88.812c0.62376,0,1.2355-0.095,1.8234-0.2813l-16.761-19.719h-51.688z"/>
</g>
<g id="d7">
<path fill="%0" d="m-133.62,952.36c-3.092,0-5.9663,2.4836-6.4281,5.5625l-0.0422,0.2812,22.377,14.156h52.813l22.389-19.469c-0.67134-0.3371-1.444-0.5312-2.2953-0.5312h-88.813z"/>
<path fill="%0" d="m-40.01,956.86-22.856,19.875-6.3,42,8.5531,10.062,11.428-9.9375,9.1406-60.938c0.05462-0.3641,0.04953-0.7182,0.03438-1.0625z"/>
<path fill="%0" d="m-61.673,1035.9-11.572,10.062-6.4312,42.875,16.756,19.75c0.26581-0.5508,0.45181-1.1371,0.54375-1.75l9.15-61-8.4469-9.9375z"/>
<path fill="%1" d="m-64.674,1032.3-8.4734-9.9687-52.625,0-11.752,10.219,8.3141,9.7813,53,0,11.536-10.031z"/>
<path fill="%1" d="m-141.59,1036.1-11.716,10.188-8.189,54.594,21.73-11.531,6.5156-43.438-8.3406-9.8125z"/>
<path fill="%1" d="m-140.53,1029,11.284-9.8125,6.5531-43.688-18.266-11.562-8.2312,54.875,8.6594,10.188z"/>
<path fill="%1" d="m-135.43,1092.4-26.928,14.312-0.0187,0.125c-0.46183,3.0789,1.6674,5.5625,4.7594,5.5625h88.813c0.62376,0,1.2355-0.095,1.8234-0.2813l-16.761-19.719h-51.688z"/>
</g>
<g id="d8" fill="%0" transform="translate(-18.460196,-110.00002)">
<path d="m4.8437,1062.4c-3.092,0-5.9663,2.4836-6.4281,5.5625l-0.04218,0.2812,22.377,14.156h52.812l22.389-19.469c-0.67134-0.3371-1.444-0.5312-2.2953-0.5312h-88.813z"/>
<path d="m98.45,1066.9-22.856,19.875-6.3,42,8.5531,10.062,11.428-9.9375,9.1406-60.938c0.05462-0.3641,0.04953-0.7182,0.03438-1.0625z"/>
<path d="m76.787,1145.9-11.572,10.062-6.4312,42.875,16.756,19.75c0.26581-0.5508,0.45181-1.1371,0.54375-1.75l9.15-61-8.4469-9.9375z"/>
<path d="m73.786,1142.3-8.4734-9.9687-52.625,0-11.752,10.219,8.3141,9.7813,53,0,11.536-10.031z"/>
<path d="m-3.125,1146.1-11.716,10.188-8.1891,54.594,21.73-11.531,6.5156-43.438-8.3406-9.8125z"/>
<path d="m-2.0656,1139,11.284-9.8125,6.5531-43.688-18.266-11.562-8.2312,54.875,8.6594,10.188z"/>
<path d="m3.0312,1202.4-26.928,14.312-0.01875,0.125c-0.46183,3.0789,1.6674,5.5625,4.7594,5.5625h88.812c0.62376,0,1.2355-0.095,1.8234-0.2813l-16.761-19.719h-51.688z"/>
</g>
<g id="d9">
<path fill="%0" d="m116.38,952.36c-3.092,0-5.9663,2.4836-6.4281,5.5625l-0.0422,0.2812,22.377,14.156h52.812l22.389-19.469c-0.67135-0.3371-1.444-0.5312-2.2953-0.5312h-88.812z"/>
<path fill="%0" d="m209.99,956.86-22.856,19.875-6.3,42,8.5531,10.062,11.428-9.9375,9.1406-60.938c0.0546-0.3641,0.0495-0.7182,0.0344-1.0625z"/>
<path fill="%0" d="m188.33,1035.9-11.572,10.062-6.4312,42.875,16.756,19.75c0.26581-0.5508,0.45182-1.1371,0.54375-1.75l9.15-61-8.4469-9.9375z"/>
<path fill="%0" d="m185.33,1032.3-8.4734-9.9687-52.625,0-11.752,10.219,8.3141,9.7813,53,0,11.536-10.031z"/>
<path fill="%1" d="m108.41,1036.1-11.716,10.188-8.1891,54.594,21.73-11.531,6.5156-43.438-8.3406-9.8125z"/>
<path fill="%0" d="m109.47,1029,11.284-9.8125,6.5531-43.688-18.266-11.562-8.2312,54.875,8.6594,10.188z"/>
<path fill="%0" d="m114.57,1092.4-26.928,14.312-0.01875,0.125c-0.46183,3.0789,1.6674,5.5625,4.7594,5.5625h88.812c0.62376,0,1.2355-0.095,1.8234-0.2813l-16.761-19.719h-51.688z"/>
</g>
<g id="underscore">
<path fill="%1" d="m256.38,952.36c-3.092,0-5.9663,2.4836-6.4281,5.5625l-0.0422,0.2812,22.377,14.156h52.812l22.389-19.469c-0.67135-0.3371-1.444-0.5312-2.2953-0.5312h-88.812z"/>
<path fill="%1" d="m349.99,956.86-22.856,19.875-6.3,42,8.5531,10.062,11.428-9.9375,9.1406-60.938c0.0546-0.3641,0.0495-0.7182,0.0344-1.0625z"/>
<path fill="%1" d="m328.33,1035.9-11.572,10.062-6.4312,42.875,16.756,19.75c0.26581-0.5508,0.45182-1.1371,0.54375-1.75l9.15-61-8.4469-9.9375z"/>
<path fill="%1" d="m325.33,1032.3-8.4734-9.9687-52.625,0-11.752,10.219,8.3141,9.7813,53,0,11.536-10.031z"/>
<path fill="%1" d="m248.41,1036.1-11.716,10.188-8.189,54.594,21.73-11.531,6.5156-43.438-8.3406-9.8125z"/>
<path fill="%1" d="m249.47,1029,11.284-9.8125,6.5531-43.688-18.266-11.562-8.2312,54.875,8.6594,10.188z"/>
<path fill="%0" d="m254.57,1092.4-26.928,14.312-0.0187,0.125c-0.46183,3.0789,1.6674,5.5625,4.7594,5.5625h88.812c0.62376,0,1.2355-0.095,1.8234-0.2813l-16.761-19.719h-51.688z"/>
</g>
<g id="colon">
<path fill="%1" d="m396.47,952.36c-3.092,0-5.9663,2.4836-6.4281,5.5625l-0.0422,0.2812,22.377,14.156h52.812l22.389-19.469c-0.67135-0.3371-1.444-0.5312-2.2953-0.5312h-88.812z"/>
<path fill="%1" d="m489.99,956.86-22.856,19.875-6.3,42,8.5531,10.062,11.428-9.9375,9.1406-60.938c0.0546-0.3641,0.0495-0.7182,0.0344-1.0625z"/>
<path fill="%1" d="m468.33,1035.9-11.572,10.062-6.4312,42.875,16.756,19.75c0.26581-0.5508,0.45182-1.1371,0.54375-1.75l9.15-61-8.4469-9.9375z"/>
<path fill="%1" d="m465.33,1032.3-8.4734-9.9687-52.625,0-11.752,10.219,8.3141,9.7813,53,0,11.536-10.031z"/>
<path fill="%1" d="m388.41,1036.1-11.716,10.188-8.189,54.594,21.73-11.531,6.5156-43.438-8.3406-9.8125z"/>
<path fill="%1" d="m389.47,1029,11.284-9.8125,6.5531-43.688-18.266-11.562-8.2312,54.875,8.6594,10.188z"/>
<path fill="%1" d="m394.57,1092.4-26.928,14.312-0.0188,0.125c-0.46183,3.0789,1.6674,5.5625,4.7594,5.5625h88.812c0.62376,0,1.2355-0.095,1.8234-0.2813l-16.761-19.719h-51.688z"/>
<path fill="%0" d="m424.77,1061.5-5.7859,5.0312-3.2156,21.438,8.3781,9.875c0.13291-0.2754,0.22591-0.5685,0.27188-0.875l4.575-30.5-4.2234-4.9687zm16.765-79.188-11.428,9.9375-3.15,21,4.2766,5.0312,5.7141-4.9687,4.5703-30.469c0.0273-0.182,0.0247-0.3591,0.0172-0.5312z"/>
</g>
</svg>
