<?xml version="1.0" encoding="UTF-8" standalone="no"?>
<!-- Created with Inkscape (http://www.inkscape.org/) -->
<svg id="svg4853" xmlns:rdf="http://www.w3.org/1999/02/22-rdf-syntax-ns#" xmlns="http://www.w3.org/2000/svg" height="120" width="240" version="1.1" xmlns:cc="http://creativecommons.org/ns#" xmlns:dc="http://purl.org/dc/elements/1.1/">
<metadata id="metadata4858">
<rdf:RDF>
<cc:Work rdf:about="">
<dc:format>image/svg+xml</dc:format>
<dc:type rdf:resource="http://purl.org/dc/dcmitype/StillImage"/>
<dc:title/>
<cc:license rdf:resource=""/>
</cc:Work>
</rdf:RDF>
</metadata>
<g id="layer1" transform="translate(1.0689641e-7,-390.3489)">
<g id="3" transform="matrix(0.92206265,0,0,0.95686149,6.3122501e-7,-54.533228)">
<path id="path3873" fill="none" d="m141.3,501.21-3.77,17.717-4.531,3.696-2.86-3.696,3.767-17.717,4.464-3.696,2.93,3.696z"/>
<path id="path3871" fill="#000" d="m137.04,527.64-2.925-3.767,4.535-3.696h16.25l2.93,3.696-4.53,3.767h-16.26z"/>
<path id="path3869" fill="none" d="m143.39,491.23-4.53,3.767-2.862-3.767,3.762-17.717,4.47-3.627,2.93,3.696-3.77,17.648z"/>
<path id="path3867" fill="#000" d="m148.83,472.33-3-3.767,4.47-3.627h16.32l3,3.696-4.54,3.697h-16.25v0.001z"/>
<path id="path3865" fill="#000" d="m167.66,501.21-3.76,17.717-4.54,3.696-2.93-3.696,3.77-17.717,4.53-3.696,2.93,3.696z"/>
<path id="path2496" fill="#000" d="m166.06,473.59,4.53-3.696,2.93,3.696-3.76,17.577-4.47,3.767-3-3.767,3.77-17.577z"/>
<path id="path3867-4" fill="#000" d="m142.95,499.75-3-3.767,4.47-3.627h16.32l3,3.696-4.54,3.697h-16.25v0.001z"/>
</g>
<g id="9" transform="matrix(0.92206265,0,0,0.95686149,-39.999999,-54.533228)">
<path id="path5040" fill="none" d="m184.68,563.91-3.77,17.717-4.531,3.696-2.86-3.696,3.767-17.717,4.464-3.696,2.93,3.696z"/>
<path id="path5042" fill="#000" d="m180.42,590.35-2.925-3.767,4.535-3.696h16.25l2.93,3.696-4.53,3.767h-16.26z"/>
<path id="path5044" fill="#000" d="m186.78,553.94-4.53,3.767-2.862-3.767,3.762-17.717,4.47-3.627,2.93,3.696-3.77,17.648z"/>
<path id="path5046" fill="#000" d="m192.22,535.04-3-3.767,4.47-3.627h16.32l3,3.696-4.54,3.697h-16.25v0.001z"/>
<path id="path5048" fill="#000" d="m211.04,563.91-3.76,17.717-4.54,3.696-2.93-3.696,3.77-17.717,4.53-3.696,2.93,3.696z"/>
<path id="path5050" fill="#000" d="m209.44,536.29,4.53-3.696,2.93,3.696-3.76,17.577-4.47,3.767-3-3.767,3.77-17.577z"/>
<path id="path5052" fill="#000" d="m186.33,562.45-3-3.767,4.47-3.627h16.32l3,3.696-4.54,3.697h-16.25v0.001z"/>
</g>
<g id="6" transform="matrix(0.92206265,0,0,0.95686149,-39.999999,-54.533228)">
<path id="path5056" fill="#000" d="m54.542,563.91-3.77,17.717-4.531,3.696-2.86-3.696,3.767-17.717,4.464-3.696,2.93,3.696z"/>
<path id="path5058" fill="#000" d="m50.282,590.35-2.925-3.767,4.535-3.696h16.25l2.93,3.696-4.53,3.767h-16.26z"/>
<path id="path5060" fill="#000" d="m56.632,553.94-4.53,3.767-2.862-3.767,3.762-17.717,4.47-3.627,2.93,3.696-3.77,17.648z"/>
<path id="path5062" fill="#000" d="m62.072,535.04-3-3.767,4.47-3.627h16.32l3,3.696-4.54,3.697h-16.25v0.001z"/>
<path id="path5064" fill="#000" d="m80.902,563.91-3.76,17.717-4.54,3.696-2.93-3.696,3.77-17.717,4.53-3.696,2.93,3.696z"/>
<path id="path5066" fill="none" d="m79.302,536.29,4.53-3.696,2.93,3.696-3.76,17.577-4.47,3.767-3-3.767,3.77-17.577z"/>
<path id="path5068" fill="#000" d="m56.188,562.45-3-3.767,4.47-3.627h16.32l3,3.696-4.54,3.697h-16.25v0.001z"/>
</g>
<g id="7" transform="matrix(0.92206263,0,0,0.95686149,-39.999997,-54.533228)">
<path id="path5072" fill="none" d="m97.923,563.91-3.77,17.717-4.531,3.696-2.86-3.696,3.767-17.717,4.464-3.696,2.93,3.696z"/>
<path id="path5074" fill="none" d="m93.663,590.35-2.925-3.767,4.535-3.696h16.25l2.93,3.696-4.53,3.767h-16.257z"/>
<path id="path5076" fill="none" d="m100.01,553.94-4.53,3.767-2.862-3.767,3.762-17.717,4.47-3.627,2.93,3.696-3.77,17.648z"/>
<path id="path5078" fill="#000" d="m105.45,535.04-3-3.767,4.47-3.627h16.32l3,3.696-4.54,3.697h-16.25v0.001z"/>
<path id="path5080" fill="#000" d="m124.28,563.91-3.76,17.717-4.54,3.696-2.93-3.696,3.77-17.717,4.53-3.696,2.93,3.696z"/>
<path id="path5082" fill="#000" d="m122.68,536.29,4.53-3.696,2.93,3.696-3.76,17.577-4.47,3.767-3-3.767,3.77-17.577z"/>
<path id="path5084" fill="none" d="m99.569,562.45-3-3.767,4.47-3.627h16.32l3,3.696-4.54,3.697h-16.251v0.001z"/>
</g>
<g id="8" fill="#000" transform="matrix(0.92206266,0,0,0.95686149,80.000002,450.3489)">
<path id="path5088" d="m11.161,36.27-3.77,17.717-4.531,3.696l-2.86-3.696,3.767-17.717,4.464-3.696,2.93,3.696z"/>
<path id="path5090" d="m6.901,62.705-2.925-3.767,4.535-3.696h16.25l2.93,3.696-4.53,3.767h-16.26z"/>
<path id="path5092" d="M13.251,26.296,8.721,30.063,5.859,26.296,9.621,8.579,14.091,4.952l2.93,3.696-3.77,17.648z"/>
<path id="path5094" d="m18.691,7.394-3-3.767,4.47-3.627h16.32l3,3.696-4.54,3.697h-16.25v0.001z"/>
<path id="path5096" d="m37.521,36.27-3.76,17.717-4.54,3.696-2.93-3.696,3.77-17.717,4.53-3.696,2.93,3.696z"/>
<path id="path5098" d="m35.921,8.649,4.53-3.696,2.93,3.696-3.76,17.577-4.47,3.767-3-3.767,3.77-17.577z"/>
<path id="path5100" d="m12.807,34.81-3-3.767,4.47-3.627h16.32l3,3.696-4.54,3.697h-16.25v0.001z"/>
</g>
<g id="1" transform="matrix(0.92206265,0,0,0.95686149,1.1925877e-6,-54.533228)">
<path id="path5120" fill="none" d="m54.542,501.21-3.77,17.717-4.531,3.696-2.86-3.696,3.767-17.717,4.464-3.696,2.93,3.696z"/>
<path id="path5122" fill="none" d="m50.282,527.64-2.925-3.767,4.535-3.696h16.25l2.93,3.696-4.53,3.767h-16.26z"/>
<path id="path5124" fill="none" d="m56.632,491.23-4.53,3.767-2.862-3.767,3.762-17.717,4.47-3.627,2.93,3.696-3.77,17.648z"/>
<path id="path5126" fill="none" d="m62.072,472.33-3-3.767,4.47-3.627h16.32l3,3.696-4.54,3.697h-16.25v0.001z"/>
<path id="path5128" fill="#000" d="m80.902,501.21-3.76,17.717-4.54,3.696-2.93-3.696,3.77-17.717,4.53-3.696,2.93,3.696z"/>
<path id="path5130" fill="#000" d="m79.302,473.59,4.53-3.696,2.93,3.696-3.76,17.577-4.47,3.767-3-3.767,3.77-17.577z"/>
<path id="path5132" fill="none" d="m56.188,499.75-3-3.767,4.47-3.627h16.32l3,3.696-4.54,3.697h-16.25v0.001z"/>
</g>
<g id="2" transform="matrix(0.92206263,0,0,0.95686149,3.0180026e-6,-54.533228)">
<path id="path5136" fill="#000" d="m97.923,501.21-3.77,17.717-4.531,3.696-2.86-3.696,3.767-17.717,4.464-3.696,2.93,3.696z"/>
<path id="path5138" fill="#000" d="m93.663,527.64-2.925-3.767,4.535-3.696h16.25l2.93,3.696-4.53,3.767h-16.257z"/>
<path id="path5140" fill="none" d="m100.01,491.23-4.53,3.767-2.862-3.767,3.762-17.717,4.47-3.627,2.93,3.696-3.77,17.648z"/>
<path id="path5142" fill="#000" d="m105.45,472.33-3-3.767,4.47-3.627h16.32l3,3.696-4.54,3.697h-16.25v0.001z"/>
<path id="path5144" fill="none" d="m124.28,501.21-3.76,17.717-4.54,3.696-2.93-3.696,3.77-17.717,4.53-3.696,2.93,3.696z"/>
<path id="path5146" fill="#000" d="m122.68,473.59,4.53-3.696,2.93,3.696-3.76,17.577-4.47,3.767-3-3.767,3.77-17.577z"/>
<path id="path5148" fill="#000" d="m99.569,499.75-3-3.767,4.47-3.627h16.32l3,3.696-4.54,3.697h-16.251v0.001z"/>
</g>
<g id="4" transform="matrix(0.92206265,0,0,0.95686149,7.2140002e-7,-54.533229)">
<path id="path5152" fill="none" d="m184.68,501.21-3.77,17.717-4.531,3.696-2.86-3.696,3.767-17.717,4.464-3.696,2.93,3.696z"/>
<path id="path5154" fill="none" d="m180.42,527.64-2.925-3.767,4.535-3.696h16.25l2.93,3.696-4.53,3.767h-16.26z"/>
<path id="path5156" fill="#000" d="m186.78,491.23-4.53,3.767-2.862-3.767,3.762-17.717,4.47-3.627,2.93,3.696-3.77,17.648z"/>
<path id="path5158" fill="none" d="m192.22,472.33-3-3.767,4.47-3.627h16.32l3,3.696-4.54,3.697h-16.25v0.001z"/>
<path id="path5160" fill="#000" d="m211.04,501.21-3.76,17.717-4.54,3.696-2.93-3.696,3.77-17.717,4.53-3.696,2.93,3.696z"/>
<path id="path5162" fill="#000" d="m209.44,473.59,4.53-3.696,2.93,3.696-3.76,17.577-4.47,3.767-3-3.767,3.77-17.577z"/>
<path id="path5164" fill="#000" d="m186.33,499.75-3-3.767,4.47-3.627h16.32l3,3.696-4.54,3.697h-16.25v0.001z"/>
</g>
<g id="5" transform="matrix(0.92206265,0,0,0.95686149,200,-114.53323)">
<path id="path5168" fill="none" d="m11.161,563.91-3.77,17.717-4.531,3.696-2.86-3.696,3.767-17.717,4.464-3.696,2.93,3.696z"/>
<path id="path5170" fill="#000" d="m6.901,590.35-2.925-3.767,4.535-3.696h16.25l2.93,3.696-4.53,3.767h-16.26z"/>
<path id="path5172" fill="#000" d="m13.251,553.94-4.53,3.767-2.862-3.767,3.762-17.717,4.47-3.627,2.93,3.696-3.77,17.648z"/>
<path id="path5174" fill="#000" d="m18.691,535.04-3-3.767,4.47-3.627h16.32l3,3.696-4.54,3.697h-16.25v0.001z"/>
<path id="path5176" fill="#000" d="m37.521,563.91-3.76,17.717-4.54,3.696-2.93-3.696,3.77-17.717,4.53-3.696,2.93,3.696z"/>
<path id="path5178" fill="none" d="m35.921,536.29,4.53-3.696,2.93,3.696-3.76,17.577-4.47,3.767-3-3.767,3.77-17.577z"/>
<path id="path5180" fill="#000" d="m12.807,562.45-3-3.767,4.47-3.627h16.32l3,3.696-4.54,3.697h-16.25v0.001z"/>
</g>
<g id="0" transform="matrix(0.92206266,0,0,0.95686149,-0.24096371,-54.711846)">
<path id="path5229" fill="#000" d="m11.422,501.4-3.77,17.717-4.531,3.696-2.86-3.696,3.767-17.717,4.464-3.696,2.93,3.696z"/>
<path id="path5231" fill="#000" d="m7.1623,527.83-2.925-3.767,4.535-3.696h16.25l2.93,3.696-4.53,3.767h-16.26z"/>
<path id="path5233" fill="#000" d="m13.512,491.42-4.53,3.767-2.862-3.767,3.762-17.717,4.47-3.627,2.93,3.696-3.77,17.648z"/>
<path id="path5235" fill="#000" d="m18.952,472.52-3-3.767,4.47-3.627h16.32l3,3.696-4.54,3.697h-16.25v0.001z"/>
<path id="path5237" fill="#000" d="m37.782,501.4-3.76,17.717-4.54,3.696-2.93-3.696,3.77-17.717,4.53-3.696,2.93,3.696z"/>
<path id="path5239" fill="#000" d="m36.182,473.77,4.53-3.696,2.93,3.696-3.76,17.577-4.47,3.767-3-3.767,3.77-17.577z"/>
<path id="path5241" fill="none" d="m13.068,499.94-3-3.767,4.47-3.627h16.32l3,3.696-4.54,3.697h-16.25v0.001z"/>
</g>
<g id="colon">
<path id="path3115" fill="#000" d="m190,486.79-1.4568,7.1232-1.759,1.486-1.1352-1.486,1.4606-7.1232,1.7551-1.486,1.1352,1.486z"/>
<path id="path3117" fill="#000" d="m190.14,471.98,1.7551-1.486,1.1352,1.486-1.4568,7.067-1.7318,1.5145-1.1623-1.5145,1.4606-7.067z"/>
<path id="path3134" fill="none" d="m170.29,485.05-3.4762,16.953-4.1779,3.5366-2.6371-3.5366,3.4734-16.953,4.1161-3.5366,2.7016,3.5366z"/>
<path id="path3136" fill="none" d="m166.36,510.35-2.697-3.6045,4.1816-3.5366h14.984l2.7016,3.5366-4.177,3.6045h-14.993z"/>
<path id="path3138" fill="none" d="m172.22,475.51-4.1769,3.6045-2.639-3.6045,3.4688-16.953,4.1216-3.4705,2.7016,3.5366-3.4762,16.887z"/>
<path id="path3140" fill="none" d="m177.23,457.42-2.7662-3.6045,4.1216-3.4705h15.048l2.7662,3.5366-4.1862,3.5375h-14.984v0.00095z"/>
<path id="path3142" fill="none" d="m194.6,485.05-3.467,16.953-4.1862,3.5366-2.7016-3.5366,3.4762-16.953,4.177-3.5366,2.7016,3.5366z"/>
<path id="path3144" fill="none" d="m193.12,458.62,4.177-3.5366,2.7016,3.5366-3.467,16.819-4.1216,3.6045-2.7662-3.6045,3.4762-16.819z"/>
<path id="path3146" fill="none" d="m171.81,483.66-2.7662-3.6045,4.1216-3.4705h15.048l2.7662,3.5366-4.1862,3.5375h-14.984v0.00095z"/>
</g>
<g id="underscore">
<path id="path3170" fill="none" d="m210.29,485.05-3.4762,16.953-4.1779,3.5366-2.6371-3.5366,3.4734-16.953,4.1161-3.5366,2.7016,3.5366z"/>
<path id="path3172" fill="#000" d="m206.36,510.35-2.697-3.6045,4.1816-3.5366h14.984l2.7016,3.5366-4.1769,3.6045h-14.993z"/>
<path id="path3174" fill="none" d="m212.22,475.51-4.177,3.6045-2.6389-3.6045,3.4688-16.953,4.1216-3.4705,2.7016,3.5366-3.4762,16.887z"/>
<path id="path3176" fill="none" d="m217.23,457.42-2.7662-3.6045,4.1216-3.4705h15.048l2.7662,3.5366-4.1862,3.5375h-14.984v0.00095z"/>
<path id="path3178" fill="none" d="m234.6,485.05-3.467,16.953-4.1862,3.5366-2.7016-3.5366,3.4762-16.953,4.1769-3.5366,2.7016,3.5366z"/>
<path id="path3180" fill="none" d="m233.12,458.62,4.1769-3.5366,2.7016,3.5366-3.467,16.819-4.1216,3.6045-2.7662-3.6045,3.4762-16.819z"/>
<path id="path3182" fill="none" d="m211.81,483.66-2.7662-3.6045,4.1216-3.4705h15.048l2.7662,3.5366-4.1862,3.5375h-14.984v0.00095z"/>
</g>
</g>
</svg>
