<?xml version="1.0" encoding="UTF-8" standalone="no"?>
<!-- Created with Inkscape (http://www.inkscape.org/) -->
<svg id="svg3845" xmlns:rdf="http://www.w3.org/1999/02/22-rdf-syntax-ns#" xmlns="http://www.w3.org/2000/svg" height="330" width="772.44" version="1.1" xmlns:cc="http://creativecommons.org/ns#" xmlns:dc="http://purl.org/dc/elements/1.1/">
<title id="title3174">seven segments digits</title>
<metadata id="metadata3850">
<rdf:RDF>
<cc:Work rdf:about="">
<dc:format>image/svg+xml</dc:format>
<dc:type rdf:resource="http://purl.org/dc/dcmitype/StillImage"/>
<dc:title>seven segments digits</dc:title>
<dc:creator>
<cc:Agent>
<dc:title>Pedro López-Cabanillas</dc:title>
</cc:Agent>
</dc:creator>
<dc:date>2014-10-05</dc:date>
<cc:license rdf:resource="http://www.gnu.org/licenses/old-licenses/gpl-2.0.html"/>
</cc:Work>
</rdf:RDF>
</metadata>
<g id="layer1" transform="translate(282.43872,-782.36216)">
<g id="2" transform="translate(-23.960188,-110)">
<path id="path4419" fill="#000" d="m30.344,892.36c-3.092,0-5.9663,2.4836-6.4281,5.5625l-0.04219,0.28125,22.377,14.156h52.812l22.389-19.469c-0.67134-0.33711-1.444-0.53125-2.2953-0.53125h-88.812z"/>
<path id="path4417" fill="#000" d="m123.95,896.86-22.856,19.875-6.3,42,8.5531,10.062,11.428-9.9375,9.1406-60.938c0.0546-0.36406,0.0495-0.71821,0.0344-1.0625z"/>
<path id="path4411" fill="none" d="m102.29,975.86-11.572,10.062-6.4313,42.875,16.756,19.75c0.26581-0.5508,0.45182-1.1371,0.54375-1.75l9.15-61-8.4469-9.9375z"/>
<path id="path4409" fill="#000" d="m99.286,972.33-8.4734-9.9688-52.625,0-11.752,10.219,8.3141,9.7812,53,0,11.536-10.031z"/>
<path id="path4405" fill="#000" d="m22.375,976.11-11.716,10.188-8.1891,54.594,21.73-11.531,6.5156-43.438-8.3406-9.8125z"/>
<path id="path4401" fill="none" d="m23.434,969.05,11.284-9.8125,6.5531-43.688-18.266-11.562-8.2312,54.875,8.6594,10.188z"/>
<path id="rect3855" fill="#000" d="m28.531,1032.4-26.928,14.312-0.01875,0.125c-0.46184,3.0789,1.6674,5.5625,4.7594,5.5625h88.813c0.62375,0,1.2355-0.095,1.8234-0.2813l-16.761-19.719h-51.688z"/>
</g>
<g id="3" transform="translate(-3.9601876,-110.00002)">
<path id="path4469" fill="#000" d="m140.34,892.36c-3.092,0-5.9663,2.4836-6.4281,5.5625l-0.0422,0.28125,22.377,14.156h52.812l22.389-19.469c-0.67134-0.33711-1.444-0.53125-2.2953-0.53125h-88.812z"/>
<path id="path4471" fill="#000" d="m233.95,896.86-22.856,19.875-6.3,42,8.5531,10.062,11.428-9.9375,9.1406-60.938c0.0546-0.36406,0.0495-0.71821,0.0344-1.0625z"/>
<path id="path4473" fill="#000" d="m212.29,975.86-11.572,10.062-6.4313,42.875,16.756,19.75c0.26581-0.5508,0.45182-1.1371,0.54375-1.75l9.15-61-8.4469-9.9375z"/>
<path id="path4475" fill="#000" d="m209.29,972.33-8.4734-9.9688-52.625,0-11.752,10.219,8.3141,9.7812,53,0,11.536-10.031z"/>
<path id="path4477" fill="none" d="m132.38,976.11-11.716,10.188-8.1891,54.594,21.73-11.531,6.5156-43.438-8.3406-9.8125z"/>
<path id="path4479" fill="none" d="m133.43,969.05,11.284-9.8125,6.5531-43.688-18.266-11.562-8.2312,54.875,8.6594,10.188z"/>
<path id="path4481" fill="#000" d="m138.53,1032.4-26.928,14.312-0.0187,0.125c-0.46183,3.0789,1.6674,5.5625,4.7594,5.5625h88.812c0.62376,0,1.2355-0.095,1.8234-0.2813l-16.761-19.719h-51.688z"/>
</g>
<g id="1" transform="translate(-43.960193,-110)">
<path id="path4497" fill="none" d="m-79.656,892.36c-3.092,0-5.9663,2.4836-6.4281,5.5625l-0.04219,0.28125,22.377,14.156h52.812l22.389-19.469c-0.67134-0.33711-1.444-0.53125-2.2953-0.53125h-88.812z"/>
<path id="path4499" fill="#000" d="m13.95,896.86-22.856,19.875-6.3,42,8.5531,10.062,11.428-9.9375,9.1406-60.938c0.05461-0.36406,0.04953-0.71821,0.03437-1.0625z"/>
<path id="path4501" fill="#000" d="m-7.7125,975.86-11.572,10.062-6.4313,42.875,16.756,19.75c0.26581-0.5508,0.45182-1.1371,0.54375-1.75l9.15-61-8.4469-9.9375z"/>
<path id="path4503" fill="none" d="m-10.714,972.33-8.4734-9.9688-52.625,0-11.752,10.219,8.3141,9.7812,53,0,11.536-10.031z"/>
<path id="path4505" fill="none" d="m-87.625,976.11-11.716,10.188-8.1891,54.594,21.73-11.531,6.5156-43.438-8.3406-9.8125z"/>
<path id="path4507" fill="none" d="m-86.566,969.05,11.284-9.8125,6.5531-43.688-18.266-11.562-8.2312,54.875,8.6594,10.188z"/>
<path id="path4509" fill="none" d="m-81.469,1032.4-26.928,14.312-0.0187,0.125c-0.46183,3.0789,1.6674,5.5625,4.7594,5.5625h88.812c0.62376,0,1.2355-0.095,1.8234-0.2813l-16.761-19.719h-51.688z"/>
</g>
<g id="7" transform="translate(-28.460196,-110.00002)">
<path id="path4525" fill="#000" d="m-105.16,1062.4c-3.092,0-5.9663,2.4836-6.4281,5.5625l-0.0422,0.2812,22.377,14.156h52.812l22.389-19.469c-0.67134-0.3371-1.444-0.5312-2.2953-0.5312h-88.812z"/>
<path id="path4527" fill="#000" d="m-11.55,1066.9-22.856,19.875-6.3,42,8.5531,10.062,11.428-9.9375,9.1406-60.938c0.05462-0.3641,0.04953-0.7182,0.03438-1.0625z"/>
<path id="path4529" fill="#000" d="m-33.213,1145.9-11.572,10.062-6.4312,42.875,16.756,19.75c0.26581-0.5508,0.45181-1.1371,0.54375-1.75l9.15-61-8.4469-9.9375z"/>
<path id="path4531" fill="none" d="m-36.214,1142.3-8.4734-9.9687-52.625,0-11.752,10.219,8.3141,9.7813,53,0,11.536-10.031z"/>
<path id="path4533" fill="none" d="m-113.12,1146.1-11.716,10.188-8.189,54.594,21.73-11.531,6.5156-43.438-8.3406-9.8125z"/>
<path id="path4535" fill="none" d="m-112.07,1139,11.284-9.8125,6.5531-43.688-18.266-11.562-8.2312,54.875,8.6594,10.188z"/>
<path id="path4537" fill="none" d="m-106.97,1202.4-26.928,14.312-0.0187,0.125c-0.46183,3.0789,1.6674,5.5625,4.7594,5.5625h88.812c0.62376,0,1.2355-0.095,1.8234-0.2813l-16.761-19.719h-51.687z"/>
</g>
<g id="8" fill="#000" transform="translate(-18.460196,-110.00002)">
<path id="path4539" d="m4.8437,1062.4c-3.092,0-5.9663,2.4836-6.4281,5.5625l-0.04218,0.2812,22.377,14.156h52.812l22.389-19.469c-0.67134-0.3371-1.444-0.5312-2.2953-0.5312h-88.813z"/>
<path id="path4541" d="m98.45,1066.9-22.856,19.875-6.3,42,8.5531,10.062,11.428-9.9375,9.1406-60.938c0.05462-0.3641,0.04953-0.7182,0.03438-1.0625z"/>
<path id="path4543" d="m76.787,1145.9-11.572,10.062-6.4312,42.875,16.756,19.75c0.26581-0.5508,0.45181-1.1371,0.54375-1.75l9.15-61-8.4469-9.9375z"/>
<path id="path4545" d="m73.786,1142.3-8.4734-9.9687-52.625,0-11.752,10.219,8.3141,9.7813,53,0,11.536-10.031z"/>
<path id="path4547" d="m-3.125,1146.1-11.716,10.188-8.1891,54.594,21.73-11.531,6.5156-43.438-8.3406-9.8125z"/>
<path id="path4549" d="m-2.0656,1139,11.284-9.8125,6.5531-43.688-18.266-11.562-8.2312,54.875,8.6594,10.188z"/>
<path id="path4551" d="m3.0312,1202.4-26.928,14.312-0.01875,0.125c-0.46183,3.0789,1.6674,5.5625,4.7594,5.5625h88.812c0.62376,0,1.2355-0.095,1.8234-0.2813l-16.761-19.719h-51.688z"/>
</g>
<g id="9" transform="translate(1.5398224,-110.00002)">
<path id="path4553" fill="#000" d="m114.84,1062.4c-3.092,0-5.9663,2.4836-6.4281,5.5625l-0.0422,0.2812,22.377,14.156h52.812l22.389-19.469c-0.67135-0.3371-1.444-0.5312-2.2953-0.5312h-88.812z"/>
<path id="path4555" fill="#000" d="m208.45,1066.9-22.856,19.875-6.3,42,8.5531,10.062,11.428-9.9375,9.1406-60.938c0.0546-0.3641,0.0495-0.7182,0.0344-1.0625z"/>
<path id="path4557" fill="#000" d="m186.79,1145.9-11.572,10.062-6.4312,42.875,16.756,19.75c0.26581-0.5508,0.45182-1.1371,0.54375-1.75l9.15-61-8.4469-9.9375z"/>
<path id="path4559" fill="#000" d="m183.79,1142.3-8.4734-9.9687-52.625,0-11.752,10.219,8.3141,9.7813,53,0,11.536-10.031z"/>
<path id="path4561" fill="none" d="m106.88,1146.1-11.716,10.188-8.1891,54.594,21.73-11.531,6.5156-43.438-8.3406-9.8125z"/>
<path id="path4563" fill="#000" d="m107.93,1139,11.284-9.8125,6.5531-43.688-18.266-11.562-8.2313,54.875,8.6594,10.188z"/>
<path id="path4565" fill="#000" d="m113.03,1202.4-26.928,14.312-0.01875,0.125c-0.46183,3.0789,1.6674,5.5625,4.7594,5.5625h88.812c0.62376,0,1.2355-0.095,1.8234-0.2813l-16.761-19.719h-51.688z"/>
</g>
<g id="underscore" transform="translate(97.561302,-160.00002)">
<path id="path4567" fill="none" d="m158.82,1112.4c-3.092,0-5.9663,2.4836-6.4281,5.5625l-0.0422,0.2812,22.377,14.156h52.812l22.389-19.469c-0.67135-0.3371-1.444-0.5312-2.2953-0.5312h-88.812z"/>
<path id="path4569" fill="none" d="m252.43,1116.9-22.856,19.875-6.3,42,8.5531,10.062,11.428-9.9375,9.1406-60.938c0.0546-0.3641,0.0495-0.7182,0.0344-1.0625z"/>
<path id="path4571" fill="none" d="m230.77,1195.9-11.572,10.062-6.4312,42.875,16.756,19.75c0.26581-0.5508,0.45182-1.1371,0.54375-1.75l9.15-61-8.4469-9.9375z"/>
<path id="path4573" fill="none" d="m227.76,1192.3-8.4734-9.9687-52.625,0-11.752,10.219,8.3141,9.7813,53,0,11.536-10.031z"/>
<path id="path4575" fill="none" d="m150.85,1196.1-11.716,10.188-8.189,54.594,21.73-11.531,6.5156-43.438-8.3406-9.8125z"/>
<path id="path4577" fill="none" d="m151.91,1189,11.284-9.8125,6.5531-43.688-18.266-11.562-8.2312,54.875,8.6594,10.188z"/>
<path id="path4579" fill="#000" d="m157.01,1252.4-26.928,14.312-0.0187,0.125c-0.46183,3.0789,1.6674,5.5625,4.7594,5.5625h88.812c0.62376,0,1.2355-0.095,1.8234-0.2813l-16.761-19.719h-51.688z"/>
</g>
<g id="5">
<path id="path4511" fill="#000" d="m396.38,782.36c-3.092,0-5.9663,2.4836-6.4281,5.5625l-0.0422,0.28125,22.377,14.156h52.812l22.389-19.469c-0.67134-0.33711-1.444-0.53125-2.2953-0.53125h-88.812z"/>
<path id="path4513" fill="none" d="m489.99,786.86-22.856,19.875-6.3,42,8.5531,10.062,11.428-9.9375,9.1406-60.938c0.0546-0.36406,0.0495-0.71821,0.0344-1.0625z"/>
<path id="path4515" fill="#000" d="m468.33,865.86-11.572,10.062-6.4313,42.875,16.756,19.75c0.26581-0.5508,0.45182-1.1371,0.54375-1.75l9.15-61-8.4469-9.9375z"/>
<path id="path4517" fill="#000" d="m465.33,862.33-8.4734-9.9688-52.625,0-11.752,10.219,8.3141,9.7812,53,0,11.536-10.031z"/>
<path id="path4519" fill="none" d="m388.41,866.11-11.716,10.188-8.1891,54.594,21.73-11.531,6.5156-43.438-8.3406-9.8125z"/>
<path id="path4521" fill="#000" d="m389.47,859.05,11.284-9.8125,6.5531-43.688-18.266-11.562-8.2312,54.875,8.6594,10.188z"/>
<path id="path4523" fill="#000" d="m394.57,922.36-26.928,14.312-0.0188,0.125c-0.46183,3.0789,1.6674,5.5625,4.7594,5.5625h88.812c0.62376,0,1.2355-0.095,1.8234-0.2813l-16.761-19.719h-51.688z"/>
</g>
<g id="0" transform="translate(-63.960193,-110)">
<path id="path4595" fill="#000" d="m-189.66,892.36c-3.092,0-5.9663,2.4836-6.4281,5.5625l-0.0422,0.28125,22.377,14.156h52.812l22.389-19.469c-0.67134-0.33711-1.444-0.53125-2.2953-0.53125h-88.812z"/>
<path id="path4597" fill="#000" d="m-96.05,896.86-22.856,19.875-6.3,42,8.5531,10.062,11.428-9.9375,9.1406-60.938c0.05461-0.36406,0.04953-0.71821,0.03437-1.0625z"/>
<path id="path4599" fill="#000" d="m-117.71,975.86-11.572,10.062-6.4313,42.875,16.756,19.75c0.26581-0.5508,0.45182-1.1371,0.54375-1.75l9.15-61-8.4469-9.9375z"/>
<path id="path4601" fill="none" d="m-120.71,972.33-8.4734-9.9688-52.625,0-11.752,10.219,8.3141,9.7812,53,0,11.536-10.031z"/>
<path id="path4603" fill="#000" d="m-197.62,976.11-11.716,10.188-8.1891,54.594,21.73-11.531,6.5156-43.438-8.3406-9.8125z"/>
<path id="path4605" fill="#000" d="m-196.57,969.05,11.284-9.8125,6.5531-43.688-18.266-11.562-8.2312,54.875,8.6594,10.188z"/>
<path id="path4607" fill="#000" d="m-191.47,1032.4-26.928,14.312-0.0187,0.125c-0.46183,3.0789,1.6674,5.5625,4.7594,5.5625h88.812c0.62376,0,1.2355-0.095,1.8234-0.2813l-16.761-19.719h-51.688z"/>
</g>
<g id="6" transform="translate(-38.460178,-110.00002)">
<path id="path4609" fill="#000" d="m-215.16,1062.4c-3.092,0-5.9663,2.4836-6.4281,5.5625l-0.0422,0.2812,22.377,14.156h52.812l22.389-19.469c-0.67135-0.3371-1.444-0.5312-2.2953-0.5312h-88.812z"/>
<path id="path4611" fill="none" d="m-121.55,1066.9-22.856,19.875-6.3,42,8.5531,10.062,11.428-9.9375,9.1406-60.938c0.0546-0.3641,0.0495-0.7182,0.0344-1.0625z"/>
<path id="path4613" fill="#000" d="m-143.21,1145.9-11.572,10.062-6.4312,42.875,16.756,19.75c0.26581-0.5508,0.45182-1.1371,0.54375-1.75l9.15-61-8.4469-9.9375z"/>
<path id="path4615" fill="#000" d="m-146.21,1142.3-8.4734-9.9687-52.625,0-11.752,10.219,8.3141,9.7813,53,0,11.536-10.031z"/>
<path id="path4617" fill="#000" d="m-223.12,1146.1-11.716,10.188-8.189,54.594,21.73-11.531,6.5156-43.438-8.3406-9.8125z"/>
<path id="path4619" fill="#000" d="m-222.07,1139,11.284-9.8125,6.5531-43.688-18.266-11.562-8.2312,54.875,8.6594,10.188z"/>
<path id="path4621" fill="#000" d="m-216.97,1202.4-26.928,14.312-0.0187,0.125c-0.46183,3.0789,1.6674,5.5625,4.7594,5.5625h88.812c0.62376,0,1.2355-0.095,1.8234-0.2813l-16.761-19.719h-51.688z"/>
</g>
<g id="colon" transform="translate(10.000002,-9.4824218e-6)">
<path id="path4581" fill="none" d="m370.88,952.36c-3.092,0-5.9663,2.4836-6.4281,5.5625l-0.0422,0.2812,22.377,14.156h52.812l22.389-19.469c-0.67135-0.3371-1.444-0.5312-2.2953-0.5312h-88.812z"/>
<path id="path4583" fill="none" d="m479.99,956.86-22.856,19.875-6.3,42,8.5531,10.062,11.428-9.9375,9.1406-60.938c0.0546-0.3641,0.0495-0.7182,0.0344-1.0625z"/>
<path id="path4585" fill="none" d="m458.33,1035.9-11.572,10.062-6.4312,42.875,16.756,19.75c0.26581-0.5508,0.45182-1.1371,0.54375-1.75l9.15-61-8.4469-9.9375z"/>
<path id="path4587" fill="none" d="m455.33,1032.3-8.4734-9.9687-52.625,0-11.752,10.219,8.3141,9.7813,53,0,11.536-10.031z"/>
<path id="path4589" fill="none" d="m378.41,1036.1-11.716,10.188-8.189,54.594,21.73-11.531,6.5156-43.438-8.3406-9.8125z"/>
<path id="path4591" fill="none" d="m379.47,1029,11.284-9.8125,6.5531-43.688-18.266-11.562-8.2312,54.875,8.6594,10.188z"/>
<path id="path4593" fill="none" d="m384.57,1092.4-26.928,14.312-0.0188,0.125c-0.46183,3.0789,1.6674,5.5625,4.7594,5.5625h88.812c0.62376,0,1.2355-0.095,1.8234-0.2813l-16.761-19.719h-51.688z"/>
<path id="path4663" fill="#000" d="m414.77,1061.5-5.7859,5.0312-3.2156,21.438,8.3781,9.875c0.13291-0.2754,0.22591-0.5685,0.27188-0.875l4.575-30.5-4.2234-4.9687zm16.765-79.188-11.428,9.9375-3.15,21,4.2766,5.0312,5.7141-4.9687,4.5703-30.469c0.0273-0.182,0.0247-0.3591,0.0172-0.5312z"/>
</g>
<g id="4">
<path id="path3144" fill="none" d="m266.38,782.36c-3.092,0-5.9663,2.4836-6.4281,5.5625l-0.0422,0.2812,22.377,14.156h52.812l22.389-19.469c-0.67135-0.3371-1.444-0.5312-2.2953-0.5312h-88.812z"/>
<path id="path3146" fill="#000" d="m359.99,786.86-22.856,19.875-6.3,42,8.5531,10.062,11.428-9.9375,9.1406-60.938c0.0546-0.3641,0.0495-0.7182,0.0344-1.0625z"/>
<path id="path3148" fill="#000" d="m338.33,865.86-11.572,10.062-6.4312,42.875,16.756,19.75c0.26581-0.5508,0.45182-1.1371,0.54375-1.75l9.15-61-8.4469-9.9375z"/>
<path id="path3150" fill="#000" d="m335.33,862.33-8.4734-9.9687-52.625,0-11.752,10.219,8.3141,9.7813,53,0,11.536-10.031z"/>
<path id="path3152" fill="none" d="m258.41,866.11-11.716,10.188-8.189,54.594,21.73-11.531,6.5156-43.438-8.3406-9.8125z"/>
<path id="path3154" fill="#000" d="m259.47,859.05,11.284-9.8125,6.5531-43.688-18.266-11.562-8.2312,54.875,8.6594,10.188z"/>
<path id="path3156" fill="none" d="m264.57,922.36-26.928,14.312-0.0188,0.125c-0.46183,3.0789,1.6674,5.5625,4.7594,5.5625h88.812c0.62376,0,1.2355-0.095,1.8234-0.2813l-16.761-19.719h-51.688z"/>
</g>
</g>
</svg>
